<?xml version="1.0" standalone="no"?>
<svg xmlns:xlink="http://www.w3.org/1999/xlink" id="wave" style="transform:rotate(180deg); transition: 0.3s" viewBox="0 0 1440 490" version="1.1" xmlns="http://www.w3.org/2000/svg"><defs><linearGradient id="sw-gradient-0" x1="0" x2="0" y1="1" y2="0"><stop stop-color="rgba(107.277, 118.728, 200.727, 1)" offset="0%"/><stop stop-color="rgba(76.215, 98.539, 218.941, 1)" offset="100%"/></linearGradient></defs><path style="transform:translate(0, 0px); opacity:1" fill="url(#sw-gradient-0)" d="M0,147L80,122.5C160,98,320,49,480,81.7C640,114,800,229,960,269.5C1120,310,1280,278,1440,245C1600,212,1760,180,1920,204.2C2080,229,2240,310,2400,343C2560,376,2720,359,2880,302.2C3040,245,3200,147,3360,147C3520,147,3680,245,3840,310.3C4000,376,4160,408,4320,400.2C4480,392,4640,343,4800,343C4960,343,5120,392,5280,351.2C5440,310,5600,180,5760,147C5920,114,6080,180,6240,196C6400,212,6560,180,6720,155.2C6880,131,7040,114,7200,130.7C7360,147,7520,196,7680,228.7C7840,261,8000,278,8160,277.7C8320,278,8480,261,8640,261.3C8800,261,8960,278,9120,245C9280,212,9440,131,9600,138.8C9760,147,9920,245,10080,294C10240,343,10400,343,10560,285.8C10720,229,10880,114,11040,114.3C11200,114,11360,229,11440,285.8L11520,343L11520,490L11440,490C11360,490,11200,490,11040,490C10880,490,10720,490,10560,490C10400,490,10240,490,10080,490C9920,490,9760,490,9600,490C9440,490,9280,490,9120,490C8960,490,8800,490,8640,490C8480,490,8320,490,8160,490C8000,490,7840,490,7680,490C7520,490,7360,490,7200,490C7040,490,6880,490,6720,490C6560,490,6400,490,6240,490C6080,490,5920,490,5760,490C5600,490,5440,490,5280,490C5120,490,4960,490,4800,490C4640,490,4480,490,4320,490C4160,490,4000,490,3840,490C3680,490,3520,490,3360,490C3200,490,3040,490,2880,490C2720,490,2560,490,2400,490C2240,490,2080,490,1920,490C1760,490,1600,490,1440,490C1280,490,1120,490,960,490C800,490,640,490,480,490C320,490,160,490,80,490L0,490Z"/></svg>