<svg width="24" height="24" viewBox="0 0 24 24" fill="none" xmlns="http://www.w3.org/2000/svg">
<g clip-path="url(#clip0_3812_12761)">
<path d="M19.6115 7.187C19.5398 7.11529 19.5398 7.11529 19.4705 7.18471C16.9999 9.65476 14.5293 12.1247 12.0599 14.5961C12.0112 14.6447 11.9874 14.6467 11.9375 14.5968C10.092 12.7487 8.24504 10.9019 6.39669 9.05644C6.3523 9.01209 6.34954 8.99084 6.39516 8.94527C8.24535 7.09801 10.0942 5.24968 11.9419 3.39997C11.9861 3.35563 12.0085 3.35303 12.054 3.39875C12.6416 3.98942 13.2308 4.57872 13.8221 5.16573C13.8731 5.21634 13.8766 5.23974 13.8235 5.29264C12.6035 6.50871 11.3859 7.72722 10.1663 8.94359C10.1211 8.98855 10.1211 9.00995 10.1663 9.05491C10.7608 9.64604 11.3535 10.2389 11.945 10.8329C11.986 10.8742 12.0074 10.8776 12.0509 10.834C13.9003 8.98243 15.7511 7.13226 17.6029 5.28301C17.6431 5.2428 17.6489 5.22246 17.6047 5.17827C15.9887 3.56541 14.3745 1.95072 12.7596 0.336795C12.31 -0.112444 11.6872 -0.112138 11.2373 0.336948C10.682 0.891387 10.1272 1.44659 9.57219 2.00164C7.48626 4.08713 5.40049 6.17262 3.31441 8.25796C3.11006 8.46224 3.00413 8.7075 3 8.99665C3.00245 9.29436 3.11511 9.54329 3.32559 9.75354C5.96625 12.3922 8.60584 15.032 11.2462 17.671C11.6851 18.1097 12.3123 18.1096 12.7517 17.6704C15.3922 15.0316 18.0322 12.3922 20.6717 9.75231C21.1104 9.31362 21.1088 8.68579 20.671 8.24649C20.3184 7.89282 19.9648 7.54022 19.6115 7.187Z" fill="#84B816"/>
</g>
<path d="M19.4039 21.8773C19.3014 21.8226 19.1949 21.779 19.0753 21.7334C19.1313 21.7008 19.1778 21.6761 19.2221 21.6476C19.5641 21.4276 19.7175 21.1005 19.695 20.6808C19.6728 20.269 19.4596 19.998 19.1167 19.8322C18.8912 19.7232 18.651 19.6887 18.4051 19.6889C17.8549 19.6892 17.3045 19.6898 16.7543 19.6875C16.6959 19.6872 16.6756 19.6986 16.6758 19.7671C16.678 21.1271 16.6778 22.4871 16.6762 23.847C16.6762 23.9069 16.6892 23.925 16.7476 23.9247C17.3664 23.9216 17.9851 23.9275 18.6038 23.9187C18.9195 23.9143 19.218 23.8301 19.4892 23.6449C20.0387 23.2699 20.1232 22.2611 19.4039 21.8773ZM17.1922 20.1146C17.4001 20.1166 17.6078 20.1155 17.8585 20.1155C18.059 20.1229 18.3026 20.1025 18.5455 20.1281C18.6632 20.1406 18.7767 20.1704 18.8845 20.2222C19.3814 20.4606 19.3182 21.1514 18.9737 21.3937C18.7911 21.5221 18.5881 21.5714 18.3755 21.5745C17.9789 21.5802 17.5824 21.5759 17.1858 21.5782C17.1372 21.5785 17.1196 21.5662 17.1198 21.511C17.1216 21.0689 17.1221 20.6267 17.1195 20.1845C17.119 20.1211 17.1435 20.1142 17.1922 20.1146ZM19.1112 23.3515C18.9079 23.4692 18.6854 23.4927 18.4598 23.4954C18.2818 23.4976 18.1038 23.4959 17.9259 23.4959C17.6823 23.4959 17.4385 23.4944 17.1949 23.4971C17.1398 23.4977 17.1192 23.4844 17.1196 23.4208C17.1221 22.9694 17.1218 22.518 17.1199 22.0666C17.1198 22.0144 17.1312 21.9975 17.1831 21.9979C17.6239 22.0007 18.0647 21.997 18.5054 22.0024C18.7002 22.0047 18.8926 22.036 19.073 22.1214C19.3066 22.2321 19.4514 22.4121 19.4626 22.6942C19.4745 22.9914 19.3558 23.2098 19.1112 23.3515Z" fill="#41291D"/>
<path d="M11.0384 19.9246C10.763 19.7503 10.459 19.6897 10.1423 19.6895C9.66605 19.6894 9.18984 19.691 8.71377 19.6875C8.64539 19.687 8.62862 19.7052 8.62891 19.7777C8.6318 20.4531 8.63064 21.1283 8.63064 21.8037C8.63064 22.4848 8.63137 23.166 8.62934 23.8471C8.6292 23.9061 8.64019 23.9285 8.70004 23.9253C8.80109 23.9198 8.90272 23.9193 9.00363 23.9255C9.06638 23.9293 9.07982 23.9084 9.07939 23.844C9.0765 23.3986 9.07895 22.9532 9.07664 22.508C9.07635 22.4481 9.08907 22.4293 9.14791 22.4304C9.38052 22.4342 9.61314 22.4312 9.84575 22.4321C10.062 22.433 10.2779 22.4299 10.4911 22.3832C11.1529 22.2379 11.6549 21.7581 11.6073 20.935C11.5817 20.4955 11.3974 20.1516 11.0384 19.9246ZM11.1518 21.119C11.1328 21.4651 10.9607 21.7042 10.6759 21.8567C10.484 21.9595 10.2761 21.9927 10.0639 21.9944C9.75756 21.9968 9.45107 21.9938 9.14473 21.9964C9.09081 21.9968 9.07606 21.9809 9.07664 21.9234C9.07939 21.6353 9.07794 21.3473 9.07794 21.0592C9.07794 20.774 9.07881 20.4889 9.07707 20.2037C9.07678 20.153 9.08054 20.1271 9.14068 20.1278C9.47984 20.1317 9.81915 20.126 10.1583 20.1323C10.3847 20.1364 10.6039 20.1844 10.7985 20.3174C11.0733 20.5053 11.1701 20.7854 11.1518 21.119Z" fill="#41291D"/>
<path d="M15.6104 19.6882C15.5122 19.6944 15.413 19.6951 15.3149 19.6881C15.2465 19.6831 15.2362 19.7109 15.2364 19.7756C15.2384 20.559 15.2373 21.3424 15.238 22.1258C15.2381 22.2659 15.2297 22.4053 15.2049 22.5428C15.1193 23.0177 14.8851 23.3591 14.4326 23.4966C14.2328 23.5573 14.0276 23.5671 13.8222 23.5361C13.385 23.47 13.0755 23.2286 12.9182 22.7816C12.8413 22.5629 12.8183 22.336 12.8186 22.1045C12.8193 21.3269 12.8182 20.5493 12.8202 19.7718C12.8203 19.7085 12.8085 19.6842 12.7443 19.6882C12.6461 19.6944 12.547 19.6948 12.4488 19.6882C12.3777 19.6834 12.3648 19.7111 12.3652 19.7813C12.3684 20.2181 12.3668 20.6551 12.3668 21.0918C12.3668 21.4326 12.3665 21.7734 12.367 22.114C12.3673 22.2948 12.3781 22.4747 12.4127 22.6522C12.5322 23.2672 12.8507 23.704 13.4241 23.8988C13.7864 24.022 14.1567 24.025 14.5261 23.9291C14.9435 23.8206 15.2637 23.5726 15.468 23.166C15.6099 22.8834 15.6728 22.5775 15.6808 22.2601C15.6886 21.9487 15.6844 21.637 15.6847 21.3254C15.6851 20.807 15.6837 20.2886 15.6863 19.7702C15.6866 19.7057 15.6733 19.6842 15.6104 19.6882Z" fill="#41291D"/>
<path d="M6.74966 20.7721C6.23587 20.6459 5.78177 20.7808 5.41703 21.192C4.91104 21.763 4.85914 22.7378 5.29617 23.3711C5.57085 23.7692 5.94687 23.9723 6.40935 23.9944C6.88758 24.0174 7.29339 23.8469 7.62575 23.4783C7.67014 23.4292 7.68474 23.3998 7.62387 23.3526C7.55997 23.3033 7.50316 23.2433 7.44634 23.1843C7.4183 23.1551 7.40109 23.1552 7.37449 23.186C7.30568 23.2654 7.22645 23.333 7.14101 23.3912C6.51691 23.816 5.59412 23.5776 5.45563 22.6127C5.44464 22.5359 5.46907 22.5331 5.52517 22.5333C5.88644 22.5351 6.24772 22.5342 6.609 22.5342C6.97302 22.5342 7.33705 22.5324 7.70093 22.5359C7.767 22.5365 7.78333 22.5141 7.7842 22.448C7.78709 22.2285 7.77076 22.0112 7.71061 21.8009C7.56156 21.2785 7.26766 20.8994 6.74966 20.7721ZM7.26534 22.1915C6.97288 22.1873 6.68027 22.1896 6.38766 22.1896C6.10604 22.1896 5.82442 22.1865 5.5428 22.1916C5.46372 22.193 5.4416 22.1793 5.45809 22.0887C5.52329 21.7298 5.67104 21.43 5.9768 21.2414C6.35658 21.0071 7.02044 21.0664 7.26578 21.802C7.29874 21.9008 7.31811 22.0031 7.33488 22.1062C7.34514 22.1684 7.33199 22.1924 7.26534 22.1915Z" fill="#84B816"/>
<defs>
<clipPath id="clip0_3812_12761">
<rect width="18" height="18" fill="white" transform="translate(3)"/>
</clipPath>
</defs>
</svg>
